<svg width="91" height="58.001" viewBox="0 0 24.077 15.346" xml:space="preserve" xmlns="http://www.w3.org/2000/svg">
    <path d="m76.588 124.28.13-.326q-.307 0-.52.056-.215.047-.503.158-.353.13-.484.13-.158 0-.26-.12-.102-.121-.102-.298 0-.363.288-.744.298-.39.725-.549.559-.223 1.433-.353.884-.14 1.749-.14.976 0 1.748.14.782.14 1.386.446.605.307 1.06.763.456.456.698 1.06.251.605.251 1.284 0 .614-.25 1.377-.243.762-.68 1.488-.437.725-.958 1.228-.604.586-1.535.995-.92.4-1.683.4-.326 0-.577-.112-.242-.12-.242-.288 0-.26.196-.484.195-.232.716-.567.446-.26.837-.623.465-.512.679-1.089.223-.576.223-1.376 0-.763-.26-1.293-.26-.53-.847-.95l-1.274 4.13-.233.726q-.148.428-.4 1.47-.455 1.795-.855 2.493-.177.307-.456.605-.447.39-1.135.688-.679.288-1.172.288-.325 0-.52-.186-.187-.195-.187-.54 0-.38.186-1.115.196-.735.79-2.633l.168-.52.177-.568z" style="-inkscape-font-specification:'Forte, @wght=400';fill:#d40000;stroke-width:.3;stroke-linecap:round" aria-label="P" transform="matrix(.99596 0 0 1.00377 -73.277 -122.554)"/>
    <path d="m86.532 126.638.1-.253q-.238 0-.404.044-.167.036-.391.123-.275.1-.376.1-.123 0-.203-.093-.08-.094-.08-.232 0-.282.225-.578.231-.304.564-.427.434-.174 1.114-.275.688-.109 1.36-.109.76 0 1.36.109.608.108 1.079.347.47.239.824.593.355.355.543.825.195.47.195.999 0 .477-.195 1.07-.188.594-.528 1.158t-.745.955q-.47.456-1.194.774-.716.311-1.31.311-.253 0-.448-.087-.188-.094-.188-.224 0-.203.152-.376.152-.181.557-.442.347-.202.65-.484.363-.398.529-.847.174-.448.174-1.07 0-.594-.203-1.006-.202-.413-.658-.738l-.991 3.212-.181.564q-.116.333-.311 1.144-.355 1.396-.666 1.938-.137.24-.354.47-.348.305-.883.536-.528.224-.912.224-.253 0-.405-.144-.145-.152-.145-.42 0-.297.145-.868.152-.572.615-2.048l.13-.405.138-.441z" style="-inkscape-font-specification:'Forte, @wght=400';fill:#04a;stroke-width:.3;stroke-linecap:round" aria-label="P" transform="matrix(.99596 0 0 1.00377 -73.277 -122.554)"/>
    <path d="m93.95 129.587.064-.163q-.153 0-.26.028-.107.023-.251.079-.177.065-.242.065-.08 0-.13-.06-.052-.061-.052-.15 0-.18.145-.371.148-.196.362-.275.28-.111.717-.177.441-.07.874-.07.488 0 .874.07.391.07.693.224.303.153.53.381.228.228.35.53.125.303.125.642 0 .307-.126.688-.12.382-.34.745-.218.362-.478.613-.302.293-.768.498-.46.2-.841.2-.163 0-.289-.056-.12-.06-.12-.144 0-.13.097-.242.098-.116.358-.283.223-.13.419-.312.232-.256.34-.544.11-.289.11-.689 0-.38-.13-.646-.13-.265-.423-.474l-.637 2.065-.116.362q-.074.214-.2.735-.228.898-.428 1.247-.088.153-.228.302-.223.195-.567.344-.34.144-.586.144-.163 0-.26-.093-.094-.097-.094-.27 0-.19.093-.558.098-.367.396-1.316l.083-.26.089-.284z" style="-inkscape-font-specification:'Forte, @wght=400';fill:#0a4;stroke-width:.3;stroke-linecap:round" aria-label="P" transform="matrix(.99596 0 0 1.00377 -73.277 -122.554)"/>
    <path style="-inkscape-font-specification:'Host Grotesk, @wght=800';fill:#fff;stroke-width:.299957;stroke-linecap:round" d="M95.01 156.141v-1.86h.648q.324 0 .533.118.21.114.31.324.103.207.103.488 0 .28-.103.49-.1.209-.31.326-.209.114-.533.114zm.369-.319h.258q.224 0 .35-.071.13-.075.185-.21.055-.138.055-.33 0-.19-.055-.329-.055-.138-.184-.21-.127-.074-.35-.074h-.26zm2.26.319.673-1.86h.419l.674 1.86h-.39l-.569-1.657h.15l-.569 1.657zm.312-.417.097-.29h.949l.097.29zm2.877.417v-1.559h-.537v-.3h1.441v.3h-.535v1.559zm1.79 0 .672-1.86h.419l.674 1.86h-.39l-.569-1.657h.15l-.569 1.657zm.31-.417.098-.29h.949l.097.29zm2.638.417v-1.86h.767q.193 0 .324.062.132.058.2.167.07.106.07.25 0 .14-.062.236-.06.096-.16.146-.098.05-.216.061l.042-.029q.126.003.224.067.1.063.155.167.058.103.058.226 0 .148-.07.265-.072.114-.21.178-.133.064-.328.064zm.37-.303h.366q.14 0 .216-.063.076-.064.076-.186 0-.12-.079-.189t-.219-.069h-.36zm0-.783h.337q.134 0 .205-.061.071-.064.071-.178 0-.112-.07-.173-.07-.064-.209-.064h-.335zm2.113 1.086.672-1.86h.419l.674 1.86h-.39l-.569-1.657h.15l-.569 1.657zm.31-.417.098-.29h.949l.097.29zm3.297.449q-.126 0-.253-.035-.126-.037-.234-.114-.106-.08-.177-.204-.071-.128-.087-.306h.337q.024.136.09.21.069.072.158.101.09.03.174.03.098 0 .171-.033.077-.032.119-.087.045-.056.045-.125 0-.077-.042-.138-.043-.061-.188-.088l-.297-.056q-.235-.045-.364-.185-.13-.144-.13-.338 0-.175.088-.297.087-.125.234-.191.148-.067.327-.067.187 0 .335.064.15.064.242.2.095.132.114.344h-.343q-.019-.12-.071-.18-.053-.064-.124-.088-.071-.024-.142-.024-.066 0-.143.022-.073.02-.126.071-.05.05-.05.141 0 .074.052.133.056.058.188.082l.274.05q.234.043.371.168.137.122.137.366 0 .139-.06.245-.058.106-.159.18-.097.072-.218.112-.121.037-.248.037zm1.963-.032v-1.859h1.22v.3h-.85v.47h.771v.29h-.772v.499h.851v.3z" aria-label="DATABASE" transform="translate(-92.886 -140.827)"/>
</svg>
